<?xml version="1.0" encoding="utf-8"?>
<!-- Generator: Adobe Illustrator 21.0.2, SVG Export Plug-In . SVG Version: 6.00 Build 0)  -->
<svg version="1.1" id="_x38_69a981d-5394-490d-9104-6940aaebaf2b"
	 xmlns="http://www.w3.org/2000/svg" xmlns:xlink="http://www.w3.org/1999/xlink" x="0px" y="0px" viewBox="0 0 1003.9 836.8"
	 style="enable-background:new 0 0 1003.9 836.8;" xml:space="preserve">
<style type="text/css">
	.st0{opacity:0.1;fill:#6C63FF;enable-background:new    ;}
	.st1{fill:#6C63FF;}
	.st2{opacity:0.1;enable-background:new    ;}
	.st3{fill:#3F3D56;}
	.st4{fill:#2F2E41;}
	.st5{fill:#FFFFFF;}
</style>
<title>questions</title>
<ellipse class="st0" cx="713.5" cy="826.7" rx="102.6" ry="10.1"/>
<path class="st0" d="M439.5,12.2c45.2-16.8,100.2-2.3,147.1,18.7C734.1,97.1,841.6,222.7,927,350.7c30.9,46.3,60.3,94.7,71.9,146.4
	c23.7,105.3-38.1,214.3-143,252.4c-35.7,13-74.9,18.3-114.2,21.3c-69.8,5.3-142.1,3.2-211.4-16.4c-49.4-14-96.1-36.5-141-61.4
	C264.2,623.5,149.9,533.2,67.5,422.9C31.4,374.6,0.9,320,0,264.2s35.5-111.9,95.3-121.4c24.7-3.9,50.9,0.2,76.4,4.4
	c37.6,6.2,75.7,12.7,112.9,10c38.4-2.8,88.3-17.8,95.3-54.5C387.4,63.4,394.4,29,439.5,12.2z"/>
<path class="st1" d="M244,768.8c0,0,48.3-2.9,42.6,30.9c0,0,1.1,6-4.3,8.7c0,0-0.1-2.5-5-1.7c-1.7,0.3-3.5,0.4-5.2,0.3
	c-2.4-0.2-4.6-1.1-6.4-2.7l0,0c0,0-13.6-5.6-18.8-27.8c0,0-3.9-4.8-3.8-6.1l8.1,3.5c0,0-2.8,5.9-0.6,10.8c0,0,0.3-10.5,1.8-10.3
	c0.3,0,4.2,2,4.2,2s-4.8,10.2-1.2,17.7c0,0-1.4-12.6,2.7-16.9l5.7,3.3c0,0-5.6,10.6-1.8,19.2c0,0-1-13.2,3-18.4l5.2,4
	c0,0-5.3,10.4-2,17.6c0,0,0.4-15.4,3.2-16.6c0,0,4.5,4,5.2,5.7c0,0-3.6,7.6-1.4,11.5c0,0,1.4-10.3,2.5-10.3c0,0,4.5,6.8,5,11.5
	c0,0-0.2-6.9-3.9-12.1c0,0,4.4,0.8,6.9,3.6c0,0-0.7-4.8-8-5.2c0,0-3.7-5.2-4.8-5.5c0,0,7.3-0.6,11.7,1.4c0,0-3.9-4.5-13.1-2.5
	l-5.1-4.2c0,0,9.6-1.3,13.7,0.1c0,0-4.7-4-15.1-1.1l-5.6-3.3c0,0,8.2-1.8,13.1-1.1c0,0-5.2-2.8-14.7,0.2l-4-1.8c0,0,6-1.2,7.8-1.4
	s1.9-0.7,1.9-0.7c-3.8-0.6-7.7-0.2-11.3,1.3C252.3,772.4,243.9,769.4,244,768.8z"/>
<ellipse class="st0" cx="277.3" cy="811.4" rx="34.2" ry="5.8"/>
<path class="st1" d="M179.4,746.1c0,0,27.2-1.6,24,17.4c0.3,2-0.6,4-2.4,4.9c0,0,0-1.4-2.8-0.9c-1,0.2-2,0.2-3,0.1
	c-1.3-0.1-2.6-0.6-3.6-1.5l0,0c0,0-7.6-3.2-10.6-15.7c0,0-2.2-2.7-2.1-3.4l4.6,2c0,0-1.6,3.3-0.3,6.1c0,0,0.1-6,1-5.8
	c0.2,0,2.4,1.2,2.4,1.2s-2.7,5.8-0.7,10c0,0-0.8-7.1,1.5-9.5l3.2,1.9c0,0-3.1,6-1,10.8c0,0-0.5-7.5,1.7-10.4l2.9,2.3
	c0,0-3,5.9-1.1,9.9c0,0,0.2-8.7,1.8-9.3c0,0,2.6,2.3,3,3.2c0,0-2,4.3-0.8,6.5c0,0,0.8-5.8,1.4-5.8c0,0,2.5,3.8,2.8,6.5
	c-0.1-2.4-0.9-4.8-2.2-6.8c1.5,0.3,2.8,1,3.9,2c0,0-0.4-2.7-4.5-3c0,0-2.1-2.9-2.7-3.1c0,0,4.1-0.3,6.6,0.8c0,0-2.2-2.6-7.4-1.4
	l-2.9-2.4c0,0,5.4-0.7,7.7,0.1c0,0-2.6-2.3-8.5-0.6l-3.1-1.9c2.4-0.5,4.9-0.7,7.4-0.6c0,0-2.9-1.6-8.3,0.1l-2.3-1
	c0,0,3.4-0.7,4.4-0.8s1-0.4,1-0.4c-2.1-0.4-4.4-0.1-6.4,0.7C184,748.2,179.3,746.4,179.4,746.1z"/>
<ellipse class="st0" cx="198.1" cy="770" rx="19.3" ry="3.3"/>
<path class="st1" d="M848.8,764.4c0,0,32.8-2,29,21c0.4,2.4-0.8,4.8-2.9,5.9c0,0-0.1-1.7-3.4-1.1c-1.2,0.2-2.4,0.3-3.6,0.2
	c-1.6-0.1-3.1-0.7-4.4-1.8l0,0c0,0-9.2-3.8-12.8-18.9c0,0-2.7-3.3-2.5-4.1l5.5,2.4c0,0-1.9,4-0.4,7.3c0,0,0.2-7.2,1.2-7
	c0.2,0,2.9,1.4,2.9,1.4s-3.3,7-0.8,12c0,0-0.9-8.6,1.8-11.5l3.9,2.3c0,0-3.8,7.2-1.2,13.1c0,0-0.7-9,2-12.5l3.5,2.8
	c0,0-3.6,7.1-1.4,12c0,0,0.3-10.5,2.2-11.3c0,0,3.1,2.7,3.6,3.8c0,0-2.5,5.2-0.9,7.9c0,0,0.9-7,1.7-7c0,0,3.1,4.6,3.4,7.8
	c-0.1-2.9-1.1-5.8-2.7-8.2c1.8,0.3,3.4,1.2,4.7,2.4c0,0-0.5-3.3-5.5-3.6c0,0-2.5-3.5-3.2-3.7c0,0,5-0.4,8,0.9c0,0-2.7-3.1-8.9-1.7
	l-3.5-2.8c0,0,6.5-0.9,9.3,0.1c0,0-3.2-2.7-10.3-0.7l-3.8-2.3c0,0,5.6-1.2,8.9-0.8c0,0-3.5-1.9-10,0.2l-2.7-1.2c0,0,4.1-0.8,5.3-0.9
	s1.3-0.5,1.3-0.5c-2.6-0.4-5.2-0.1-7.7,0.8C854.5,766.9,848.7,764.8,848.8,764.4z"/>
<ellipse class="st0" cx="871.4" cy="793.4" rx="23.3" ry="3.9"/>
<path class="st2" d="M658.4,462.9c2,1.7,4.4,2.9,6.9,3.6c-0.7-0.2-1.4-0.5-2-1c-1.4-1-2.8-2.1-4.1-3.2c-1.1-0.9-2.5-2.3-3.8-2.6
	C656.3,460.9,657.3,461.9,658.4,462.9z"/>
<path class="st2" d="M737.7,487.8c-0.6,0.1-1.2-0.1-1.7-0.4c-2.4-1.4-4.8-2.9-7.2-4.4c-2.3-1.5-5.1-3-7.1-4.9
	C726.6,482.5,731.1,486.3,737.7,487.8z"/>
<path class="st1" d="M626.1,402.7H557v-68.2h69.2L626.1,402.7z M625.1,299.9H558c0-105.9,100.7-99.7,100.7-166.7
	c0-36.9-30.2-66.5-67.1-66.5s-67.1,31.9-67.1,67.5h-67.1C457.2,60.2,517.1,0.1,591.1,0c0.2,0,0.3,0,0.5,0
	c74.1,0,134.2,59.2,134.2,133.2C725.8,217,625.1,226.5,625.1,299.9L625.1,299.9z"/>
<path class="st0" d="M281.1,382.4h-17.8v-17.6h17.8V382.4z M280.9,355.9h-17.3c0-27.3,26-25.7,26-43c0-9.5-7.8-17.2-17.3-17.2
	c0,0,0,0,0,0c-9.5,0.2-17.1,7.9-17.3,17.4h-17.3c0.2-19.1,15.9-34.4,35-34.2c18.7,0.2,33.8,15.2,34.2,33.9
	C306.8,334.5,280.9,336.9,280.9,355.9L280.9,355.9z"/>
<path class="st0" d="M416.2,504.8h-17.8v-17.6h17.8V504.8z M416,478.3h-17.3c0-27.3,26-25.7,26-43c0-9.5-7.8-17.2-17.3-17.1
	c0,0,0,0,0,0c-9.5,0.2-17.2,7.9-17.4,17.4h-17.3c0.2-19.1,15.9-34.4,35-34.2c18.7,0.2,33.8,15.2,34.2,33.9
	C441.9,456.9,416,459.4,416,478.3z"/>
<path class="st0" d="M498.4,288.1h-12.9v-12.7h12.9V288.1z M498.2,268.9h-12.5c0-19.8,18.8-18.6,18.8-31.2c0-6.9-5.6-12.5-12.5-12.4
	c0,0,0,0,0,0c-6.9,0.1-12.4,5.7-12.5,12.6h-12.5c-0.1-13.9,11.1-25.1,25-25.2s25.1,11.1,25.2,25C517,253.4,498.2,255.2,498.2,268.9z
	"/>
<path class="st0" d="M719.2,306h-7.3v-7.2h7.3V306z M719.1,295.2H712c0-11.2,10.6-10.5,10.6-17.6c0-3.9-3.1-7-7-7c0,0-0.1,0-0.1,0
	c-3.9,0.1-7,3.2-7.1,7.1h-7.1c0.2-7.8,6.7-14,14.5-13.9c7.5,0.2,13.6,6.2,13.9,13.7C729.7,286.4,719.1,287.4,719.1,295.2z"/>
<path class="st0" d="M831,633.5h-7.3v-7.2h7.3V633.5z M830.9,622.7h-7.1c0-11.2,10.6-10.5,10.6-17.6c0-3.9-3.2-7-7.1-7
	c-3.9,0.1-7,3.2-7.1,7.1h-7.1c0.2-7.8,6.7-14,14.5-13.9c7.5,0.2,13.6,6.2,13.9,13.7C841.5,613.9,830.9,614.9,830.9,622.7
	L830.9,622.7z"/>
<g>
	<ellipse class="st3" cx="725.8" cy="701.2" rx="170" ry="23.1"/>
	<circle class="st4" cx="734.9" cy="588.2" r="79"/>
	<rect x="746.9" y="650.2" class="st4" width="24" height="43"/>
	<rect x="698.9" y="650.2" class="st4" width="24" height="43"/>
	<ellipse class="st4" cx="750.9" cy="693.7" rx="20" ry="7.5"/>
	<ellipse class="st4" cx="702.9" cy="692.7" rx="20" ry="7.5"/>
	<circle class="st5" cx="732.9" cy="568.2" r="27"/>
	<circle class="st3" cx="732.9" cy="568.2" r="9"/>
	<path class="st1" d="M743.4,535.4c-31.5-7-52.4-17.6-46.1-46.1c6.4-28.6,37.1-46,68.6-39c31.5,7,51.9,35.9,45.5,64.5
		C805.2,543.3,775,542.4,743.4,535.4z"/>
	<circle class="st4" cx="761.9" cy="361.2" r="79"/>
	<rect x="773.9" y="423.2" class="st4" width="24" height="43"/>
	<rect x="725.9" y="423.2" class="st4" width="24" height="43"/>
	<ellipse class="st4" cx="777.9" cy="466.7" rx="20" ry="7.5"/>
	<ellipse class="st4" cx="729.9" cy="465.7" rx="20" ry="7.5"/>
	<circle class="st5" cx="759.9" cy="341.2" r="27"/>
	<circle class="st3" cx="759.9" cy="341.2" r="9"/>
	<path class="st1" d="M770.4,308.4c-31.5-7-52.4-17.6-46.1-46.1s37.1-46,68.6-39c31.5,7,51.9,35.9,45.5,64.5
		C832.2,316.3,802,315.4,770.4,308.4z"/>
	
		<ellipse transform="matrix(0.9341 -0.357 0.357 0.9341 -62.2506 265.8392)" class="st4" cx="688.9" cy="301.5" rx="12.4" ry="39.5"/>
	
		<ellipse transform="matrix(0.9035 -0.4285 0.4285 0.9035 -56.9806 395.9548)" class="st4" cx="850.9" cy="324.5" rx="39.5" ry="12.4"/>
	<path class="st5" d="M758.8,384.7c-22.1,0-42.8-9.2-42.8-1.5s20.7,29.5,42.8,29.5c22.1,0,42-15.3,42-23S780.8,384.7,758.8,384.7z"
		/>
</g>
</svg>
