<?xml version="1.0" encoding="utf-8"?>
<!-- Generator: Adobe Illustrator 21.0.2, SVG Export Plug-In . SVG Version: 6.00 Build 0)  -->
<svg version="1.1" id="Capa_1" xmlns="http://www.w3.org/2000/svg" xmlns:xlink="http://www.w3.org/1999/xlink" x="0px" y="0px"
	 viewBox="0 0 49 49" style="enable-background:new 0 0 49 49;" xml:space="preserve">
<style type="text/css">
	.st0{fill:#FFFFFF;}
</style>
<g>
	<path class="st0" d="M39.9,0h-2.4h-28h-9v49h7h33h8V8.6L39.9,0z M35.5,2v14h-24V2H35.5z M9.5,47V28h29v19H9.5z M46.5,47h-6V26h-33
		v21h-5V2h7v16h28V2h1.6l7.4,7.4V47z"/>
	<path class="st0" d="M13.5,33h7c0.6,0,1-0.4,1-1s-0.4-1-1-1h-7c-0.6,0-1,0.4-1,1C12.5,32.6,12.9,33,13.5,33z"/>
	<path class="st0" d="M23.5,35h-10c-0.6,0-1,0.4-1,1s0.4,1,1,1h10c0.6,0,1-0.4,1-1S24.1,35,23.5,35z"/>
	<path class="st0" d="M25.8,35.3c-0.2,0.2-0.3,0.5-0.3,0.7s0.1,0.5,0.3,0.7c0.2,0.2,0.4,0.3,0.7,0.3c0.3,0,0.5-0.1,0.7-0.3
		c0.2-0.2,0.3-0.5,0.3-0.7s-0.1-0.5-0.3-0.7C26.8,34.9,26.2,34.9,25.8,35.3z"/>
	<path class="st0" d="M33.5,4h-6v10h6V4z M31.5,12h-2V6h2V12z"/>
</g>
</svg>
